<svg width="264" height="252" viewBox="0 0 264 252" fill="none" xmlns="http://www.w3.org/2000/svg">
<path d="M111.108 250.324C42.3265 242.341 -7.13747 179.891 0.845193 111.108C8.82786 42.3265 71.2785 -7.13746 140.061 0.845209C175.34 4.93987 207.383 23.9119 227.973 52.8999C230.44 56.3705 229.625 61.1852 226.153 63.6505C222.683 66.1172 217.871 65.3012 215.403 61.8292C197.339 36.3985 169.229 19.7545 138.284 16.1625C77.9479 9.15987 23.1639 52.5505 16.1625 112.885C9.15986 173.223 52.5492 228.007 112.885 235.008C143.831 238.599 175.005 228.835 198.413 208.217C201.609 205.403 206.481 205.712 209.296 208.908C212.109 212.104 211.801 216.975 208.605 219.791C181.923 243.289 146.387 254.417 111.108 250.324Z" fill="url(#paint0_linear)"/>
<path d="M231.288 33.0486C228 32.6673 225.644 29.6926 226.025 26.4046L227.75 11.538C228.132 8.24997 231.106 5.89397 234.394 6.2753C237.682 6.65664 240.038 9.63264 239.657 12.9193L237.932 27.786C237.55 31.074 234.576 33.4313 231.288 33.0486Z" fill="url(#paint1_linear)"/>
<path d="M245.462 50.9457C243.938 50.7684 242.482 50.011 241.454 48.7137C239.399 46.1177 239.837 42.3484 242.431 40.2937L254.163 31.0017C256.759 28.9457 260.529 29.383 262.583 31.9777C264.638 34.5737 264.201 38.343 261.605 40.3977L249.874 49.691C248.577 50.7177 246.986 51.1217 245.462 50.9457Z" fill="url(#paint2_linear)"/>
<path d="M154.483 108.228C150.844 120.568 133.6 117.72 128.063 116.296C122.527 114.872 113.667 112.657 113.667 112.657L122.209 80.8588C122.209 80.8588 137.398 84.1815 144.2 87.5041C151.003 90.8255 158.121 95.8882 154.483 108.228ZM149.631 159.591C149.631 159.591 144.78 173.301 122.422 168.451C100.062 163.599 101.539 163.599 101.539 163.599L110.187 128.583C110.187 128.583 159.967 135.965 149.631 159.591ZM186.756 106.224C190.915 77.2922 155.116 69.7321 155.116 69.7321L161.371 43.0348L145.835 39.5681L139.295 65.3028L126.639 62.3495L132.844 36.5615L117.359 33.0295L110.608 59.3961L78.9682 51.3801L74.3268 67.4121C74.3268 67.4121 79.6002 68.2561 87.6162 70.7868C95.6322 73.3175 92.4682 83.2321 92.4682 83.2321C92.4682 83.2321 78.1242 141.661 76.0148 149.255C73.9055 156.848 68.2095 155.583 65.4682 154.951C62.7255 154.317 56.6082 152.84 56.6082 152.84L48.5935 170.348L80.8668 178.575L74.2442 205.279L89.6615 208.777L96.4762 182.583L109.132 185.957L102.44 211.676L118.163 215.244L124.742 189.755C145.835 193.763 169.037 196.083 180.849 168.661C192.663 141.239 165.873 129.216 165.873 129.216C165.873 129.216 183.124 131.499 186.756 106.224Z" fill="url(#paint3_linear)"/>
<defs>
<linearGradient id="paint0_linear" x1="114.699" y1="251.156" x2="114.699" y2="1.49701e-05" gradientUnits="userSpaceOnUse">
<stop stop-color="#36A18B"/>
<stop offset="0.9999" stop-color="#67B8A7"/>
<stop offset="1" stop-color="white" stop-opacity="0"/>
</linearGradient>
<linearGradient id="paint1_linear" x1="232.841" y1="33.0894" x2="232.841" y2="6.23483" gradientUnits="userSpaceOnUse">
<stop stop-color="#36A18B"/>
<stop offset="0.9999" stop-color="#67B8A7"/>
<stop offset="1" stop-color="white" stop-opacity="0"/>
</linearGradient>
<linearGradient id="paint2_linear" x1="252.019" y1="50.9856" x2="252.019" y2="29.7056" gradientUnits="userSpaceOnUse">
<stop stop-color="#36A18B"/>
<stop offset="0.9999" stop-color="#67B8A7"/>
<stop offset="1" stop-color="white" stop-opacity="0"/>
</linearGradient>
<linearGradient id="paint3_linear" x1="117.843" y1="215.244" x2="117.843" y2="33.0295" gradientUnits="userSpaceOnUse">
<stop stop-color="#36A18B"/>
<stop offset="0.9999" stop-color="#67B8A7"/>
<stop offset="1" stop-color="white" stop-opacity="0"/>
</linearGradient>
</defs>
</svg>
