<svg width="511" height="252" viewBox="0 0 511 252" fill="none" xmlns="http://www.w3.org/2000/svg">
<path d="M334.832 170.716C338.366 171.764 342.424 172.287 347.012 172.287C355.129 172.287 361.35 169.668 365.672 164.429C369.992 159.191 372.154 151.268 372.154 140.659C372.154 136.603 371.826 132.837 371.173 129.367C370.514 125.896 369.404 122.915 367.833 120.425C366.26 117.94 364.261 115.977 361.841 114.536C359.416 113.096 356.438 112.372 352.902 112.372C349.628 112.372 346.844 112.997 344.554 114.243C342.261 115.487 340.394 117.187 338.956 119.345C337.516 121.509 336.466 124.031 335.812 126.909C335.157 129.791 334.832 132.868 334.832 136.143V170.716ZM306.937 90.5692C308.769 90.1759 310.572 89.9172 312.338 89.7839C314.108 89.6545 316.101 89.5865 318.33 89.5865C321.996 89.5865 325.728 89.9799 329.526 90.7652C329.921 91.4212 330.281 92.3719 330.608 93.6159C330.933 94.8612 331.261 96.2039 331.589 97.6399C331.914 99.0852 332.178 100.492 332.374 101.865C332.572 103.24 332.734 104.387 332.865 105.3C334.045 103.208 335.484 101.147 337.189 99.1119C338.889 97.0865 340.953 95.2852 343.374 93.7145C345.798 92.1385 348.514 90.8625 351.528 89.8825C354.54 88.8999 357.88 88.4092 361.546 88.4092C367.176 88.4092 372.449 89.4585 377.36 91.5505C382.27 93.6479 386.558 96.8239 390.225 101.08C393.89 105.336 396.74 110.672 398.772 117.088C400.8 123.508 401.816 131.101 401.816 139.873C401.816 148.391 400.57 156.016 398.082 162.761C395.594 169.507 391.994 175.236 387.278 179.947C382.565 184.663 376.801 188.295 369.992 190.852C363.182 193.404 355.457 194.68 346.814 194.68C344.585 194.68 342.393 194.58 340.234 194.384C338.073 194.188 336.27 193.961 334.832 193.697V238.88C332.342 239.272 329.95 239.531 327.661 239.665C325.368 239.795 323.108 239.86 320.884 239.86C318.656 239.86 316.396 239.795 314.108 239.665C311.813 239.531 309.422 239.272 306.937 238.88V90.5692Z" fill="url(#paint0_linear)"/>
<path d="M443.116 170.716C446.65 171.764 450.709 172.287 455.296 172.287C463.414 172.287 469.636 169.668 473.956 164.429C478.277 159.191 480.438 151.268 480.438 140.659C480.438 136.603 480.11 132.837 479.457 129.367C478.8 125.896 477.689 122.915 476.118 120.425C474.545 117.94 472.546 115.977 470.126 114.536C467.701 113.096 464.722 112.372 461.188 112.372C457.913 112.372 455.129 112.997 452.84 114.243C450.546 115.487 448.68 117.187 447.241 119.345C445.8 121.509 444.752 124.031 444.097 126.909C443.441 129.791 443.116 132.868 443.116 136.143V170.716ZM415.222 90.5692C417.053 90.1759 418.857 89.9172 420.624 89.7839C422.392 89.6545 424.386 89.5865 426.614 89.5865C430.28 89.5865 434.012 89.9799 437.81 90.7652C438.205 91.4212 438.565 92.3719 438.893 93.6159C439.218 94.8612 439.546 96.2039 439.874 97.6399C440.2 99.0852 440.464 100.492 440.66 101.865C440.857 103.24 441.02 104.387 441.15 105.3C442.33 103.208 443.769 101.147 445.474 99.1119C447.173 97.0865 449.237 95.2852 451.66 93.7145C454.082 92.1385 456.8 90.8625 459.813 89.8825C462.824 88.8999 466.164 88.4092 469.832 88.4092C475.46 88.4092 480.733 89.4585 485.644 91.5505C490.556 93.6479 494.842 96.8239 498.51 101.08C502.176 105.336 505.025 110.672 507.056 117.088C509.085 123.508 510.101 131.101 510.101 139.873C510.101 148.391 508.854 156.016 506.366 162.761C503.88 169.507 500.28 175.236 495.564 179.947C490.85 184.663 485.086 188.295 478.277 190.852C471.466 193.404 463.742 194.68 455.1 194.68C452.87 194.68 450.678 194.58 448.518 194.384C446.357 194.188 444.554 193.961 443.116 193.697V238.88C440.626 239.272 438.234 239.531 435.946 239.665C433.652 239.795 431.393 239.86 429.169 239.86C426.94 239.86 424.681 239.795 422.392 239.665C420.098 239.531 417.706 239.272 415.222 238.88V90.5692Z" fill="url(#paint1_linear)"/>
<path d="M266.424 145.767C264.851 145.509 263.15 145.276 261.315 145.08C259.482 144.884 257.844 144.785 256.406 144.785C249.987 144.785 244.915 145.932 241.18 148.225C237.448 150.515 235.584 154.213 235.584 159.321C235.584 162.731 236.302 165.349 237.743 167.179C239.184 169.016 240.918 170.353 242.95 171.207C244.978 172.059 247.139 172.58 249.432 172.777C251.722 172.973 253.72 173.072 255.424 173.072C257.387 173.072 259.352 172.911 261.315 172.58C263.282 172.255 264.98 171.961 266.424 171.697V145.767ZM266.424 125.533C266.424 122.393 265.899 119.836 264.851 117.873C263.803 115.911 262.364 114.371 260.53 113.256C258.694 112.145 256.438 111.391 253.754 110.999C251.067 110.605 248.087 110.409 244.816 110.409C237.743 110.409 230.212 111.784 222.226 114.536C220.39 111.132 219.015 107.924 218.1 104.908C217.182 101.897 216.724 98.2959 216.724 94.1066C222.487 92.1386 228.247 90.7026 234.011 89.7839C239.772 88.8693 245.14 88.4093 250.119 88.4093C263.738 88.4093 274.379 91.6839 282.039 98.2293C289.702 104.779 293.532 115.255 293.532 129.661V188.588C288.946 190.035 283.383 191.408 276.835 192.716C270.286 194.023 262.888 194.68 254.636 194.68C247.958 194.68 241.836 194.089 236.271 192.912C230.702 191.735 225.924 189.771 221.931 187.017C217.934 184.271 214.86 180.732 212.699 176.413C210.536 172.089 209.456 166.785 209.456 160.499C209.456 154.213 210.798 148.944 213.483 144.687C216.167 140.436 219.638 137.027 223.895 134.475C228.148 131.919 232.898 130.084 238.138 128.973C243.374 127.863 248.611 127.3 253.851 127.3C257.648 127.3 261.838 127.501 266.424 127.895V125.533Z" fill="url(#paint2_linear)"/>
<path d="M111.108 250.324C42.3265 242.341 -7.13747 179.891 0.845193 111.108C8.82786 42.3265 71.2785 -7.13746 140.061 0.845209C175.34 4.93987 207.383 23.9119 227.973 52.8999C230.44 56.3705 229.625 61.1852 226.153 63.6505C222.683 66.1172 217.871 65.3012 215.403 61.8292C197.339 36.3985 169.229 19.7545 138.284 16.1625C77.9479 9.15987 23.1639 52.5505 16.1625 112.885C9.15986 173.223 52.5492 228.007 112.885 235.008C143.831 238.599 175.005 228.835 198.413 208.217C201.609 205.403 206.481 205.712 209.296 208.908C212.109 212.104 211.801 216.975 208.605 219.791C181.923 243.289 146.387 254.417 111.108 250.324Z" fill="url(#paint3_linear)"/>
<path d="M231.288 33.0486C228 32.6673 225.644 29.6926 226.025 26.4046L227.75 11.538C228.132 8.24997 231.106 5.89397 234.394 6.2753C237.682 6.65664 240.038 9.63264 239.657 12.9193L237.932 27.786C237.55 31.074 234.576 33.4313 231.288 33.0486Z" fill="url(#paint4_linear)"/>
<path d="M245.462 50.9457C243.938 50.7684 242.482 50.011 241.454 48.7137C239.399 46.1177 239.837 42.3484 242.431 40.2937L254.163 31.0017C256.759 28.9457 260.529 29.383 262.583 31.9777C264.638 34.5737 264.201 38.343 261.605 40.3977L249.874 49.691C248.577 50.7177 246.986 51.1217 245.462 50.9457Z" fill="url(#paint5_linear)"/>
<path d="M154.483 108.228C150.844 120.568 133.6 117.72 128.063 116.296C122.527 114.872 113.667 112.657 113.667 112.657L122.209 80.8588C122.209 80.8588 137.398 84.1815 144.2 87.5041C151.003 90.8255 158.121 95.8882 154.483 108.228ZM149.631 159.591C149.631 159.591 144.78 173.301 122.422 168.451C100.062 163.599 101.539 163.599 101.539 163.599L110.187 128.583C110.187 128.583 159.967 135.965 149.631 159.591ZM186.756 106.224C190.915 77.2922 155.116 69.7321 155.116 69.7321L161.371 43.0348L145.835 39.5681L139.295 65.3028L126.639 62.3495L132.844 36.5615L117.359 33.0295L110.608 59.3961L78.9682 51.3801L74.3268 67.4121C74.3268 67.4121 79.6002 68.2561 87.6162 70.7868C95.6322 73.3175 92.4682 83.2321 92.4682 83.2321C92.4682 83.2321 78.1242 141.661 76.0148 149.255C73.9055 156.848 68.2095 155.583 65.4682 154.951C62.7255 154.317 56.6082 152.84 56.6082 152.84L48.5935 170.348L80.8668 178.575L74.2442 205.279L89.6615 208.777L96.4762 182.583L109.132 185.957L102.44 211.676L118.163 215.244L124.742 189.755C145.835 193.763 169.037 196.083 180.849 168.661C192.663 141.239 165.873 129.216 165.873 129.216C165.873 129.216 183.124 131.499 186.756 106.224Z" fill="url(#paint6_linear)"/>
<defs>
<linearGradient id="paint0_linear" x1="354.376" y1="239.86" x2="354.376" y2="88.4092" gradientUnits="userSpaceOnUse">
<stop stop-color="#36A18B"/>
<stop offset="0.9999" stop-color="#67B8A7"/>
<stop offset="1" stop-color="white" stop-opacity="0"/>
</linearGradient>
<linearGradient id="paint1_linear" x1="462.662" y1="239.86" x2="462.662" y2="88.4092" gradientUnits="userSpaceOnUse">
<stop stop-color="#36A18B"/>
<stop offset="0.9999" stop-color="#67B8A7"/>
<stop offset="1" stop-color="white" stop-opacity="0"/>
</linearGradient>
<linearGradient id="paint2_linear" x1="251.494" y1="194.68" x2="251.494" y2="88.4093" gradientUnits="userSpaceOnUse">
<stop stop-color="#36A18B"/>
<stop offset="0.9999" stop-color="#67B8A7"/>
<stop offset="1" stop-color="white" stop-opacity="0"/>
</linearGradient>
<linearGradient id="paint3_linear" x1="114.699" y1="251.156" x2="114.699" y2="1.49701e-05" gradientUnits="userSpaceOnUse">
<stop stop-color="#36A18B"/>
<stop offset="0.9999" stop-color="#67B8A7"/>
<stop offset="1" stop-color="white" stop-opacity="0"/>
</linearGradient>
<linearGradient id="paint4_linear" x1="232.841" y1="33.0894" x2="232.841" y2="6.23483" gradientUnits="userSpaceOnUse">
<stop stop-color="#36A18B"/>
<stop offset="0.9999" stop-color="#67B8A7"/>
<stop offset="1" stop-color="white" stop-opacity="0"/>
</linearGradient>
<linearGradient id="paint5_linear" x1="252.019" y1="50.9856" x2="252.019" y2="29.7056" gradientUnits="userSpaceOnUse">
<stop stop-color="#36A18B"/>
<stop offset="0.9999" stop-color="#67B8A7"/>
<stop offset="1" stop-color="white" stop-opacity="0"/>
</linearGradient>
<linearGradient id="paint6_linear" x1="117.843" y1="215.244" x2="117.843" y2="33.0295" gradientUnits="userSpaceOnUse">
<stop stop-color="#36A18B"/>
<stop offset="0.9999" stop-color="#67B8A7"/>
<stop offset="1" stop-color="white" stop-opacity="0"/>
</linearGradient>
</defs>
</svg>
