<?xml version="1.0" encoding="UTF-8"?>
<svg width="185px" height="54px" viewBox="0 0 185 54" version="1.1" xmlns="http://www.w3.org/2000/svg" xmlns:xlink="http://www.w3.org/1999/xlink">
    <!-- Generator: Sketch 61.2 (89653) - https://sketch.com -->
    <title>App Store</title>
    <desc>Created with Sketch.</desc>
    <g id="App-Store" stroke="none" stroke-width="1" fill="none" fill-rule="evenodd">
        <g id="App-Store-Badge-US-Black" fill-rule="nonzero">
            <path d="M12.871818,-0.0001755 C12.376773,-0.0001755 11.887668,-0.0001755 11.3939325,0.0027 C10.98063,0.0054 10.5706215,0.0132435 10.15335,0.019845 C9.24684347,0.0305124349 8.34246873,0.110262951 7.448085,0.2584035 C6.55495751,0.409769048 5.6898079,0.695136249 4.881897,1.1048535 C4.0749742,1.51803681 3.33766577,2.05492617 2.6967195,2.6960445 C2.05240837,3.33535994 1.51532529,4.07432211 1.1061225,4.884516 C0.695790326,5.69309731 0.411264673,6.5595667 0.2623725,7.453998 C0.112064771,8.34729962 0.0311828139,9.25090273 0.0204525,10.156698 C0.0079245,10.570608 0.0066015,10.985895 0,11.399859 L0,42.60411 C0.0066015,43.023285 0.0079245,43.429365 0.0204525,43.848675 C0.0311861043,44.7544253 0.112068062,45.6579833 0.2623725,46.55124 C0.410853537,47.4461942 0.695396013,48.313161 1.1061225,49.122045 C1.51513949,49.9296189 2.0522981,50.6655894 2.6967195,51.30135 C3.33523551,51.945319 4.07302052,52.4825736 4.881897,52.892595 C5.68980176,53.3034088 6.5548581,53.5904746 7.448085,53.744175 C8.34262078,53.8911289 9.2469025,53.9709118 10.15335,53.982855 C10.5706215,53.992035 10.98063,53.9973 11.3939325,53.9973 C11.8876545,54 12.3768,54 12.871818,54 L172.142188,54 C172.627378,54 173.120398,54 173.605588,53.9973 C174.016933,53.9973 174.438808,53.992035 174.850153,53.982855 C175.754887,53.971547 176.657466,53.891759 177.550153,53.744175 C178.446262,53.5893926 179.314419,53.3024029 180.126223,52.892595 C180.93437,52.4823362 181.671474,51.9450962 182.309443,51.30135 C182.952202,50.6630994 183.490508,49.9276673 183.904603,49.122045 C184.312248,48.3125725 184.594082,47.4456751 184.740388,46.55124 C184.890933,45.6578608 184.974685,44.7545038 184.990948,43.848675 C184.996213,43.429365 184.996213,43.023285 184.996213,42.60411 C185.006743,42.113655 185.006743,41.6259 185.006743,41.12748 L185.006743,12.8737755 C185.006743,12.379392 185.006743,11.888964 184.996213,11.399859 C184.996213,10.985895 184.996213,10.570608 184.990948,10.156644 C184.974689,9.2507703 184.890937,8.34736816 184.740388,7.453944 C184.593674,6.56003016 184.311857,5.69362942 183.904603,4.884462 C183.071281,3.26051471 181.749873,1.93863429 180.126223,1.104732 C179.314417,0.696015963 178.446166,0.410724553 177.550153,0.258282 C176.657621,0.109488757 175.754947,0.0297104826 174.850153,0.019656 C174.438808,0.013068 174.016933,0.005157 173.605588,0.0025245 C173.120398,-0.0001755 172.627378,-0.0001755 172.142188,-0.0001755 L12.871818,-0.0001755 Z" id="Background-Gray" fill="#A6A6A6"></path>
            <path d="M11.4005205,52.81875 C10.9892025,52.81875 10.5878205,52.813485 10.179729,52.804305 C9.33433439,52.79329 8.49091568,52.7196938 7.65639,52.58412 C6.87823691,52.450103 6.12441573,52.200807 5.419791,51.844455 C4.7216273,51.4910556 4.08484588,51.0276683 3.533841,50.472045 C2.97486044,49.9229666 2.50948359,49.2861294 2.1561525,48.58677 C1.798928,47.8828653 1.55170739,47.1283644 1.4231025,46.34955 C1.28422038,45.5127051 1.2090794,44.6665229 1.1983275,43.8183 C1.1897685,43.533585 1.1785635,42.585615 1.1785635,42.585615 L1.1785635,11.399859 C1.1785635,11.399859 1.1904975,10.4664555 1.198395,10.19223 C1.20868987,9.34535077 1.2833939,8.50048168 1.4218605,7.6649355 C1.55070278,6.88398761 1.79811478,6.12731097 2.1555315,5.4211005 C2.50756401,4.7222242 2.97035719,4.08491139 3.5259705,3.533868 C4.08095932,2.97758892 4.71977768,2.51181556 5.4191295,2.1535335 C6.1221348,1.79832636 6.87453135,1.55078894 7.6511115,1.4192145 C8.4883779,1.28227879 9.33472463,1.20824471 10.18305,1.1977335 L11.401182,1.18125 L173.598973,1.18125 L174.831658,1.198395 C175.672267,1.20838392 176.510926,1.28175751 177.340498,1.4178915 C178.12494,1.55111634 178.885178,1.80038097 179.596213,2.157489 C180.997268,2.87953117 182.13728,4.02186998 182.856463,5.4243945 C183.208175,6.12572971 183.451771,6.87623412 183.578983,7.6504365 C183.719099,8.49283836 183.797517,9.34434675 183.813613,10.19817 C183.817528,10.58049 183.817528,10.99116 183.817528,11.399859 C183.828193,11.906109 183.828193,12.3879645 183.828193,12.8737755 L183.828193,41.12748 C183.828193,41.617935 183.828193,42.09651 183.817528,42.579 C183.817528,43.01802 183.817528,43.420185 183.812263,43.834095 C183.796516,44.6726822 183.719405,45.5089917 183.581548,46.33632 C183.455579,47.1207526 183.209705,47.8811427 182.852548,48.59082 C182.49672,49.2825885 182.034015,49.9139094 181.481488,50.461515 C180.929988,51.0201243 180.292083,51.4862226 179.592298,51.84189 C178.883232,52.2009815 178.124114,52.4511994 177.340498,52.58412 C176.506036,52.7204173 175.662536,52.7940182 174.817078,52.804305 C174.421663,52.813485 174.007618,52.81875 173.605588,52.81875 L172.142188,52.82145 L11.4005205,52.81875 Z" id="Background-Black" fill="#000000"></path>
            <path d="M65.1080645,36.6385275 L58.7179745,36.6385275 L57.1834025,41.169735 L54.4768145,41.169735 L60.5294045,24.405435 L63.3414545,24.405435 L69.3940445,41.169735 L66.6413,41.169735 L65.1080645,36.6385275 Z M59.379785,34.547607 L64.444985,34.547607 L61.9480115,27.1937925 L61.8781355,27.1937925 L59.379785,34.547607 Z M82.4655815,35.0591355 C82.4655815,38.8573335 80.4326705,41.297607 77.3648495,41.297607 C75.7791196,41.3805572 74.2854487,40.5499914 73.519199,39.159207 L73.461149,39.159207 L73.461149,45.21312 L70.952309,45.21312 L70.952309,28.947213 L73.38077,28.947213 L73.38077,30.980124 L73.426913,30.980124 C74.2272042,29.5980587 75.7224858,28.7678504 77.3187065,28.8193275 C80.42075,28.819341 82.4655815,31.271481 82.4655815,35.0591355 Z M79.8868655,35.0591355 C79.8868655,32.5845855 78.608051,30.957714 76.6568825,30.957714 C74.7399905,30.957714 73.4506325,32.6188485 73.4506325,35.0591355 C73.4506325,37.5218325 74.7399905,39.1711005 76.6568825,39.1711005 C78.6080645,39.1711005 79.8868655,37.556109 79.8868655,35.0591355 Z M95.9181155,35.0591355 C95.9181155,38.8573335 93.8852045,41.297607 90.8173835,41.297607 C89.2316536,41.3805572 87.7379827,40.5499914 86.971733,39.159207 L86.913683,39.159207 L86.913683,45.21312 L84.404843,45.21312 L84.404843,28.947213 L86.83325,28.947213 L86.83325,30.980124 L86.879393,30.980124 C87.67969,29.5980595 89.1749773,28.7678561 90.7712,28.819341 C93.873338,28.819341 95.9181155,31.271481 95.9181155,35.0591355 Z M93.339413,35.0591355 C93.339413,32.5845855 92.060585,30.957714 90.1094165,30.957714 C88.1925245,30.957714 86.9031665,32.6188485 86.9031665,35.0591355 C86.9031665,37.5218325 88.1925245,39.1711005 90.1094165,39.1711005 C92.0605985,39.1711005 93.339413,37.556109 93.339413,35.0591355 L93.339413,35.0591355 Z M104.809134,36.4987755 C104.995029,38.161233 106.610035,39.2527755 108.816947,39.2527755 C110.931601,39.2527755 112.452983,38.161179 112.452983,36.662193 C112.452983,35.3609685 111.535402,34.581843 109.362752,34.047891 L107.190102,33.524496 C104.111738,32.780943 102.682628,31.3412895 102.682628,29.005155 C102.682628,26.112672 105.203334,24.125904 108.78267,24.125904 C112.32507,24.125904 114.753518,26.112672 114.835261,29.005155 L112.302661,29.005155 C112.151055,27.332154 110.768089,26.3223 108.747044,26.3223 C106.725999,26.3223 105.343046,27.344034 105.343046,28.83114 C105.343046,30.0163455 106.226351,30.7137555 108.387134,31.24764 L110.23415,31.701159 C113.673747,32.514588 115.102857,33.896259 115.102857,36.348372 C115.102857,39.484746 112.604561,41.449104 108.631025,41.449104 C104.913246,41.449104 102.403097,39.530889 102.240935,36.498654 L104.809134,36.4987755 Z M120.517383,26.05473 L120.517383,28.947213 L122.841652,28.947213 L122.841652,30.933981 L120.517383,30.933981 L120.517383,37.6721145 C120.517383,38.718891 120.982769,39.2066865 122.00449,39.2066865 C122.280418,39.201875 122.5559,39.1824981 122.829785,39.1486365 L122.829785,41.123538 C122.370418,41.2093704 121.903511,41.2482436 121.436275,41.239557 C118.961725,41.239557 117.996677,40.310109 117.996677,37.939698 L117.996677,30.933981 L116.219537,30.933981 L116.219537,28.947213 L117.99665,28.947213 L117.99665,26.05473 L120.517383,26.05473 Z M124.18775,35.0591355 C124.18775,31.213485 126.452686,28.796931 129.984582,28.796931 C133.528333,28.796931 135.782725,31.213431 135.782725,35.0591355 C135.782725,38.915343 133.540199,41.32134 129.984582,41.32134 C126.430222,41.32134 124.18775,38.9153295 124.18775,35.0591355 Z M133.226419,35.0591355 C133.226419,32.4211005 132.01748,30.8641185 129.984569,30.8641185 C127.951658,30.8641185 126.744043,32.432967 126.744043,35.0591355 C126.744043,37.707714 127.951658,39.252843 129.984569,39.252843 C132.01748,39.252843 133.226419,37.707714 133.226419,35.0591355 L133.226419,35.0591355 Z M137.851167,28.947213 L140.244002,28.947213 L140.244002,31.027563 L140.302052,31.027563 C140.63574,29.6883473 141.862831,28.7666526 143.241987,28.819314 C143.531109,28.8183045 143.819433,28.8497035 144.101559,28.912923 L144.101559,31.259601 C143.736561,31.1480685 143.355805,31.0968602 142.97431,31.107996 C142.236735,31.0780738 141.522926,31.3720219 141.020308,31.9126581 C140.51769,32.4532942 140.276478,33.1866055 140.360007,33.920046 L140.360007,41.169708 L137.851167,41.169708 L137.851167,28.947213 Z M155.668805,37.5798285 C155.331305,39.798621 153.170509,41.3213265 150.405911,41.3213265 C146.850295,41.3213265 144.643369,38.939049 144.643369,35.1171315 C144.643369,31.2833475 146.862161,28.7969175 150.300449,28.7969175 C153.682037,28.7969175 155.808557,31.1198625 155.808557,34.8257745 L155.808557,35.6853465 L147.175942,35.6853465 L147.175942,35.8369515 C147.095343,36.7468942 147.409548,37.6476112 148.038632,38.3099894 C148.667716,38.9723676 149.551047,39.3325649 150.463934,39.298959 C151.681421,39.4130335 152.829273,38.7139199 153.286541,37.579815 L155.668805,37.5798285 Z M147.187784,33.9319395 L153.298394,33.9319395 C153.343923,33.1142816 153.04629,32.3147112 152.477203,31.7258526 C151.908115,31.136994 151.119171,30.8122386 150.300449,30.8298285 C149.47525,30.824904 148.682272,31.1498117 148.097769,31.7323349 C147.513266,32.314858 147.18567,33.1067289 147.187784,33.9319395 L147.187784,33.9319395 Z" id="App-Store" fill="#FFFFFF"></path>
            <path d="M59.0653565,11.78685 C60.1304344,11.7104186 61.1736546,12.115639 61.9078777,12.890977 C62.6421009,13.6663149 62.9899359,14.7300455 62.8556435,15.789384 C62.8556435,18.3628215 61.464779,19.842084 59.0653565,19.842084 L56.155742,19.842084 L56.155742,11.78685 L59.0653565,11.78685 Z M57.4068545,18.7029 L58.9256045,18.7029 C59.6867641,18.7483977 60.4279068,18.4485047 60.943245,17.8864899 C61.4585832,17.3244752 61.6932525,16.5601725 61.582094,15.8058 C61.6851652,15.0545581 61.4471164,14.2965624 60.933056,13.7391309 C60.4189955,13.1816994 59.6827192,12.8831665 58.9256045,12.9251835 L57.4068545,12.9251835 L57.4068545,18.7029 Z M64.268918,16.799859 C64.1646806,15.7102538 64.6871529,14.6557511 65.6172115,14.0786064 C66.5472701,13.5014618 67.7241104,13.5014618 68.654169,14.0786064 C69.5842276,14.6557511 70.1066999,15.7102538 70.0024625,16.799859 C70.1086831,17.8906351 69.5866877,18.947183 68.6558045,19.5255702 C67.7249213,20.1039573 66.5464592,20.1039573 65.615576,19.5255702 C64.6846928,18.947183 64.1626974,17.8906351 64.268918,16.799859 Z M68.7684815,16.799859 C68.7684815,15.4821645 68.17652,14.7115845 67.137668,14.7115845 C66.094847,14.7115845 65.508218,15.4821645 65.508218,16.7998725 C65.508218,18.128124 66.0948875,18.892764 67.137668,18.892764 C68.176547,18.892764 68.7684815,18.122832 68.7684815,16.799859 L68.7684815,16.799859 Z M77.623901,19.8419625 L76.3793765,19.8419625 L75.1229855,15.364809 L75.028067,15.364809 L73.776941,19.8419625 L72.5442695,19.8419625 L70.868636,13.763007 L72.0854855,13.763007 L73.1744495,18.401607 L73.264103,18.401607 L74.513906,13.763007 L75.664835,13.763007 L76.914638,18.401607 L77.0095565,18.401607 L78.093242,13.763007 L79.2929465,13.763007 L77.623901,19.8419625 Z M80.7022655,13.763007 L81.85715,13.763007 L81.85715,14.7287025 L81.9468035,14.7287025 C82.2585656,14.0176952 82.9870634,13.5827651 83.760866,13.645665 C84.3600187,13.6006179 84.9471459,13.8304664 85.3564725,14.2703128 C85.7657992,14.7101592 85.9529056,15.3122721 85.8649625,15.906645 L85.8649625,19.841895 L84.665258,19.841895 L84.665258,16.207911 C84.665258,15.2310105 84.2407505,14.745186 83.35349,14.745186 C82.9470939,14.7262578 82.5526972,14.8857515 82.2736987,15.1818527 C81.9947002,15.4779538 81.8589253,15.8811314 81.90197,16.2856845 L81.90197,19.8419625 L80.7022655,19.8419625 L80.7022655,13.763007 Z M87.7765895,11.38995 L88.976294,11.38995 L88.976294,19.841949 L87.7765895,19.841949 L87.7765895,11.38995 Z M90.6440165,16.799859 C90.5398592,15.7101825 91.0624139,14.6556531 91.9925415,14.0784996 C92.9226691,13.501346 94.0995699,13.501346 95.0296975,14.0784996 C95.9598251,14.6556531 96.4823798,15.7101825 96.3782225,16.799859 C96.4843082,17.8906741 95.9622171,18.9471922 95.0312877,19.5255539 C94.1003583,20.1039155 92.9218807,20.1039155 91.9909513,19.5255539 C91.0600219,18.9471922 90.5379308,17.8906741 90.6440165,16.799859 L90.6440165,16.799859 Z M95.14358,16.799859 C95.14358,15.4821645 94.5516185,14.7115845 93.5127665,14.7115845 C92.4699455,14.7115845 91.8833165,15.4821645 91.8833165,16.7998725 C91.8833165,18.128124 92.469986,18.892764 93.5127665,18.892764 C94.551632,18.892764 95.14358,18.122832 95.14358,16.799859 L95.14358,16.799859 Z M97.641215,18.122832 C97.641215,17.0285895 98.455967,16.3977615 99.902195,16.308108 L101.54883,16.2131895 L101.54883,15.688485 C101.54883,15.0464385 101.124323,14.683896 100.304306,14.683896 C99.6345845,14.683896 99.170522,14.9297715 99.037358,15.3595575 L97.8758855,15.3595575 C97.9984925,14.3154135 98.9806715,13.645692 100.359669,13.645692 C101.883698,13.645692 102.74327,14.404392 102.74327,15.688485 L102.74327,19.841976 L101.588385,19.841976 L101.588385,18.9876825 L101.493467,18.9876825 C101.101223,19.6115531 100.403684,19.9761704 99.667538,19.9421325 C99.1514818,19.9958109 98.6368011,19.8286794 98.2507343,19.4820558 C97.8646676,19.1354322 97.6432482,18.6416685 97.641215,18.122832 L97.641215,18.122832 Z M101.54883,17.6033925 L101.54883,17.0951715 L100.064357,17.19009 C99.227195,17.246115 98.8475075,17.530884 98.8475075,18.0667935 C98.8475075,18.613908 99.3221135,18.932292 99.9747575,18.932292 C100.361109,18.9714013 100.746791,18.8520413 101.043513,18.601536 C101.340234,18.3510308 101.522589,17.9908304 101.54883,17.6033925 Z M104.320016,16.799859 C104.320016,14.8790115 105.307473,13.662162 106.843355,13.662162 C107.618899,13.6264277 108.345267,14.0419884 108.707516,14.728662 L108.797169,14.728662 L108.797169,11.38995 L109.996874,11.38995 L109.996874,19.841949 L108.847268,19.841949 L108.847268,18.8815185 L108.752349,18.8815185 C108.362718,19.5624949 107.627401,19.9710312 106.843368,19.9421325 C105.29693,19.9422 104.320016,18.7253235 104.320016,16.799859 Z M105.559316,16.799859 C105.559316,18.089217 106.167086,18.8650755 107.183542,18.8650755 C108.194692,18.8650755 108.81962,18.0780255 108.81962,16.8051375 C108.81962,15.5381895 108.188131,14.739921 107.183542,14.739921 C106.173634,14.739921 105.559276,15.5210445 105.559276,16.799859 L105.559316,16.799859 Z M114.9605,16.799859 C114.856263,15.7102538 115.378735,14.6557511 116.308794,14.0786064 C117.238852,13.5014618 118.415692,13.5014618 119.345751,14.0786064 C120.27581,14.6557511 120.798282,15.7102538 120.694045,16.799859 C120.800265,17.8906351 120.27827,18.947183 119.347386,19.5255702 C118.416503,20.1039573 117.238041,20.1039573 116.307158,19.5255702 C115.376275,18.947183 114.854279,17.8906351 114.9605,16.799859 L114.9605,16.799859 Z M119.46005,16.799859 C119.46005,15.4821645 118.868102,14.7115845 117.82925,14.7115845 C116.786429,14.7115845 116.1998,15.4821645 116.1998,16.7998725 C116.1998,18.128124 116.78647,18.892764 117.82925,18.892764 C118.868116,18.892764 119.46005,18.122832 119.46005,16.799859 Z M122.303757,13.763007 L123.458642,13.763007 L123.458642,14.7287025 L123.548295,14.7287025 C123.860058,14.0176952 124.588555,13.5827651 125.362358,13.645665 C125.961511,13.6006179 126.548638,13.8304664 126.957965,14.2703128 C127.367291,14.7101592 127.554398,15.3122721 127.466455,15.906645 L127.466455,19.841895 L126.26675,19.841895 L126.26675,16.207911 C126.26675,15.2310105 125.842242,14.745186 124.954982,14.745186 C124.548586,14.7262578 124.154189,14.8857515 123.875191,15.1818527 C123.596192,15.4779538 123.460417,15.8811314 123.503462,16.2856845 L123.503462,19.8419625 L122.303757,19.8419625 L122.303757,13.763007 Z M134.245466,12.2495355 L134.245466,13.7906955 L135.562512,13.7906955 L135.562512,14.8012245 L134.245466,14.8012245 L134.245466,17.927055 C134.245466,18.563823 134.507825,18.842652 135.105038,18.842652 C135.257933,18.8421627 135.410675,18.832918 135.562512,18.8149635 L135.562512,19.814274 C135.347065,19.8528175 135.128779,19.8733231 134.909922,19.8755775 C133.575744,19.8755775 133.044438,19.4062365 133.044438,18.2342205 L133.044438,14.8011705 L132.079404,14.8011705 L132.079404,13.7906415 L133.044438,13.7906415 L133.044438,12.2495355 L134.245466,12.2495355 Z M137.201223,11.38995 L138.390384,11.38995 L138.390384,14.7399075 L138.485303,14.7399075 C138.81204,14.0226776 139.553288,13.5871932 140.338853,13.6509435 C140.934603,13.6185263 141.513783,13.853435 141.918636,14.2916857 C142.323488,14.7299364 142.511847,15.3258826 142.432406,15.917202 L142.432406,19.8419625 L141.2315,19.8419625 L141.2315,16.2131625 C141.2315,15.2421885 140.77925,14.7504375 139.931599,14.7504375 C139.514218,14.7162065 139.103008,14.8679428 138.807902,15.1650812 C138.512797,15.4622197 138.363887,15.8744614 138.400982,16.2915975 L138.400982,19.8419625 L137.201277,19.8419625 L137.201223,11.38995 Z M149.427687,18.2006055 C149.091277,19.3472678 147.981634,20.0881391 146.793608,19.959291 C145.983019,19.9806888 145.203998,19.6447014 144.663238,19.0404745 C144.122478,18.4362475 143.874647,17.6248655 143.9855,16.8216075 C143.877591,16.0161171 144.124494,15.203435 144.662243,14.5941034 C145.199992,13.9847717 145.975673,13.6387486 146.788329,13.6456785 C148.479785,13.6456785 149.500196,14.8012785 149.500196,16.7101785 L149.500196,17.1288 L145.207615,17.1288 L145.207615,17.19603 C145.169628,17.6471192 145.323688,18.0933045 145.631907,18.4248549 C145.940126,18.7564054 146.373904,18.9425573 146.826562,18.93753 C147.413504,19.0079928 147.984851,18.7168496 148.272803,18.200565 L149.427687,18.2006055 Z M145.207587,16.241526 L148.278041,16.241526 C148.308622,15.8289666 148.163559,15.4226768 147.878599,15.1227798 C147.593639,14.8228827 147.195284,14.6572689 146.781701,14.666751 C146.362515,14.6614845 145.958968,14.8257287 145.6626,15.122226 C145.366232,15.4187233 145.202165,15.8223425 145.207615,16.241526 L145.207587,16.241526 Z" id="Download-on-the" fill="#FFFFFF"></path>
            <path d="M33.437988,27.405918 C33.4674949,25.1156823 34.6681659,23.0002012 36.619344,21.800637 C35.382842,20.0346922 33.3860293,18.9551858 31.231278,18.887769 C28.964304,18.649818 26.7665715,20.2442895 25.611363,20.2442895 C24.4337985,20.2442895 22.6551735,18.911394 20.739888,18.9508005 C18.2198717,19.0322169 15.9274852,20.4302594 14.701446,22.633425 C12.090546,27.153792 14.0380425,33.7972095 16.539066,37.451133 C17.790381,39.2403555 19.252809,41.238963 21.1663665,41.168088 C23.0388975,41.0904225 23.7382515,39.97404 25.9985565,39.97404 C28.2378825,39.97404 28.894023,41.168088 30.8464065,41.123025 C32.8557195,41.090409 34.121682,39.325851 35.329095,37.519686 C36.2281628,36.2447996 36.919994,34.8357725 37.378962,33.3447975 C34.9925084,32.3354447 33.4407734,29.9970464 33.437988,27.405918 L33.437988,27.405918 Z M29.7502875,16.4847015 C30.8458484,15.1695206 31.3855897,13.4790783 31.2548895,11.7723645 C29.5811161,11.9481622 28.0350183,12.7481171 26.9246565,14.012838 C25.8282253,15.2606552 25.2727758,16.8931341 25.380648,18.5507145 C27.0768647,18.5681791 28.6873867,17.8067068 29.7502875,16.4847015 L29.7502875,16.4847015 Z" id="Icon" fill="#FFFFFF"></path>
        </g>
    </g>
</svg>