<?xml version="1.0" encoding="UTF-8"?>
<svg width="185px" height="54px" viewBox="0 0 185 54" version="1.1" xmlns="http://www.w3.org/2000/svg" xmlns:xlink="http://www.w3.org/1999/xlink">
    <!-- Generator: Sketch 61.2 (89653) - https://sketch.com -->
    <title>Google Play Badge US</title>
    <desc>Created with Sketch.</desc>
    <defs>
        <linearGradient x1="61.0339412%" y1="4.9481245%" x2="26.5026568%" y2="71.9074222%" id="linearGradient-1">
            <stop stop-color="#00A0FF" offset="0%"></stop>
            <stop stop-color="#00A1FF" offset="1%"></stop>
            <stop stop-color="#00BEFF" offset="26%"></stop>
            <stop stop-color="#00D2FF" offset="51%"></stop>
            <stop stop-color="#00DFFF" offset="76%"></stop>
            <stop stop-color="#00E3FF" offset="100%"></stop>
        </linearGradient>
        <linearGradient x1="107.684729%" y1="50%" x2="-130.640394%" y2="50%" id="linearGradient-2">
            <stop stop-color="#FFE000" offset="0%"></stop>
            <stop stop-color="#FFBD00" offset="41%"></stop>
            <stop stop-color="#FFA500" offset="78%"></stop>
            <stop stop-color="#FF9C00" offset="100%"></stop>
        </linearGradient>
        <linearGradient x1="86.219293%" y1="30.9112842%" x2="-50.1497903%" y2="135.987548%" id="linearGradient-3">
            <stop stop-color="#FF3A44" offset="0%"></stop>
            <stop stop-color="#C31162" offset="100%"></stop>
        </linearGradient>
        <linearGradient x1="-18.7537448%" y1="-11.831554%" x2="42.1210306%" y2="35.0948125%" id="linearGradient-4">
            <stop stop-color="#32A071" offset="0%"></stop>
            <stop stop-color="#2DA771" offset="7%"></stop>
            <stop stop-color="#15CF74" offset="48%"></stop>
            <stop stop-color="#06E775" offset="80%"></stop>
            <stop stop-color="#00F076" offset="100%"></stop>
        </linearGradient>
    </defs>
    <g id="Page-2" stroke="none" stroke-width="1" fill="none" fill-rule="evenodd">
        <g id="Google-Play-Badge-US" fill-rule="nonzero">
            <path d="M12.871818,-0.0001755 C12.376773,-0.0001755 11.887668,-0.0001755 11.3939325,0.0027 C10.98063,0.0054 10.5706215,0.0132435 10.15335,0.019845 C9.24684347,0.0305124349 8.34246873,0.110262951 7.448085,0.2584035 C6.55495751,0.409769048 5.6898079,0.695136249 4.881897,1.1048535 C4.0749742,1.51803681 3.33766577,2.05492617 2.6967195,2.6960445 C2.05240837,3.33535994 1.51532529,4.07432211 1.1061225,4.884516 C0.695790326,5.69309731 0.411264673,6.5595667 0.2623725,7.453998 C0.112064771,8.34729962 0.0311828139,9.25090273 0.0204525,10.156698 C0.0079245,10.570608 0.0066015,10.985895 0,11.399859 L0,42.60411 C0.0066015,43.023285 0.0079245,43.429365 0.0204525,43.848675 C0.0311861043,44.7544253 0.112068062,45.6579833 0.2623725,46.55124 C0.410853537,47.4461942 0.695396013,48.313161 1.1061225,49.122045 C1.51513949,49.9296189 2.0522981,50.6655894 2.6967195,51.30135 C3.33523551,51.945319 4.07302052,52.4825736 4.881897,52.892595 C5.68980176,53.3034088 6.5548581,53.5904746 7.448085,53.744175 C8.34262078,53.8911289 9.2469025,53.9709118 10.15335,53.982855 C10.5706215,53.992035 10.98063,53.9973 11.3939325,53.9973 C11.8876545,54 12.3768,54 12.871818,54 L171.63194,54 C172.11713,54 172.61015,54 173.09534,53.9973 C173.506685,53.9973 173.92856,53.992035 174.339905,53.982855 C175.244638,53.971547 176.147218,53.891759 177.039905,53.744175 C177.936013,53.5893926 178.804171,53.3024029 179.615974,52.892595 C180.424121,52.4823362 181.161225,51.9450962 181.799194,51.30135 C182.441953,50.6630994 182.980259,49.9276673 183.394354,49.122045 C183.801999,48.3125725 184.083833,47.4456751 184.23014,46.55124 C184.380685,45.6578608 184.464436,44.7545038 184.480699,43.848675 C184.485964,43.429365 184.485964,43.023285 184.485964,42.60411 C184.496494,42.113655 184.496494,41.6259 184.496494,41.12748 L184.496494,12.8737755 C184.496494,12.379392 184.496494,11.888964 184.485964,11.399859 C184.485964,10.985895 184.485964,10.570608 184.480699,10.156644 C184.46444,9.2507703 184.380688,8.34736816 184.23014,7.453944 C184.083425,6.56003016 183.801608,5.69362942 183.394354,4.884462 C182.561032,3.26051471 181.239624,1.93863429 179.615974,1.104732 C178.804168,0.696015963 177.935918,0.410724553 177.039904,0.258282 C176.147372,0.109488757 175.244699,0.0297104826 174.339904,0.019656 C173.928559,0.013068 173.506685,0.005157 173.09534,0.0025245 C172.61015,-0.0001755 172.11713,-0.0001755 171.63194,-0.0001755 L12.871818,-0.0001755 Z" id="Background-Gray" fill="#A6A6A6"></path>
            <path d="M11.4005205,52.81875 C10.9892025,52.81875 10.5878205,52.813485 10.179729,52.804305 C9.33433439,52.79329 8.49091568,52.7196938 7.65639,52.58412 C6.87823691,52.450103 6.12441573,52.200807 5.419791,51.844455 C4.7216273,51.4910556 4.08484588,51.0276683 3.533841,50.472045 C2.97486044,49.9229666 2.50948359,49.2861294 2.1561525,48.58677 C1.798928,47.8828653 1.55170739,47.1283644 1.4231025,46.34955 C1.28422038,45.5127051 1.2090794,44.6665229 1.1983275,43.8183 C1.1897685,43.533585 1.1785635,42.585615 1.1785635,42.585615 L1.1785635,11.399859 C1.1785635,11.399859 1.1904975,10.4664555 1.198395,10.19223 C1.20868987,9.34535077 1.2833939,8.50048168 1.4218605,7.6649355 C1.55070278,6.88398761 1.79811478,6.12731097 2.1555315,5.4211005 C2.50756401,4.7222242 2.97035719,4.08491139 3.5259705,3.533868 C4.08095932,2.97758892 4.71977768,2.51181556 5.4191295,2.1535335 C6.1221348,1.79832636 6.87453135,1.55078894 7.6511115,1.4192145 C8.4883779,1.28227879 9.33472463,1.20824471 10.18305,1.1977335 L11.401182,1.18125 L173.088725,1.18125 L174.32141,1.198395 C175.162018,1.20838392 176.000677,1.28175751 176.83025,1.4178915 C177.614691,1.55111634 178.374929,1.80038097 179.085965,2.157489 C180.487019,2.87953117 181.627031,4.02186998 182.346215,5.4243945 C182.697926,6.12572971 182.941522,6.87623412 183.068735,7.6504365 C183.20885,8.49283836 183.287268,9.34434675 183.303365,10.19817 C183.30728,10.58049 183.30728,10.99116 183.30728,11.399859 C183.317945,11.906109 183.317945,12.3879645 183.317945,12.8737755 L183.317945,41.12748 C183.317945,41.617935 183.317945,42.09651 183.30728,42.579 C183.30728,43.01802 183.30728,43.420185 183.302015,43.834095 C183.286267,44.6726822 183.209156,45.5089917 183.0713,46.33632 C182.945331,47.1207526 182.699456,47.8811427 182.3423,48.59082 C181.986471,49.2825885 181.523766,49.9139094 180.971239,50.461515 C180.419739,51.0201243 179.781834,51.4862226 179.08205,51.84189 C178.372984,52.2009815 177.613865,52.4511994 176.83025,52.58412 C175.995787,52.7204173 175.152287,52.7940182 174.306829,52.804305 C173.911415,52.813485 173.49737,52.81875 173.09534,52.81875 L171.63194,52.82145 L11.4005205,52.81875 Z" id="Background-Black" fill="#000000"></path>
            <path d="M91.989,29.3625 C88.8238237,29.3773951 86.2686098,31.9527195 86.2784994,35.1179153 C86.2884466,38.2831111 88.8597502,40.8423712 92.0249577,40.8374366 C95.1901651,40.8324878 97.753465,38.2652113 97.7535,35.1 C97.7757385,33.5669046 97.1746627,32.0904581 96.0879444,31.0088299 C95.0012262,29.9272017 93.5219741,29.3330641 91.989,29.3625 L91.989,29.3625 Z M91.989,38.583 C90.5623569,38.6827721 89.2197085,37.9003232 88.6032288,36.6098901 C87.9867491,35.3194569 88.2217384,33.7833218 89.1958039,32.7362013 C90.1698695,31.6890809 91.6850311,31.3438037 93.0166036,31.8655121 C94.3481761,32.3872206 95.2255155,33.6698766 95.229,35.1 C95.2729328,35.9946071 94.9536441,36.8690302 94.3435895,37.524839 C93.7335348,38.1806478 92.8844443,38.5622321 91.989,38.583 L91.989,38.583 Z M79.4205,29.3625 C76.2535343,29.3699517 73.6915422,31.9420083 73.6964998,35.1089788 C73.7014719,38.2759494 76.2715159,40.8399604 79.4384894,40.8374842 C82.6054629,40.8350043 85.1714912,38.2669745 85.1715,35.1 C85.1937385,33.5669046 84.5926627,32.0904581 83.5059444,31.0088299 C82.4192262,29.9272017 80.9399741,29.3330641 79.407,29.3625 L79.4205,29.3625 Z M79.4205,38.583 C77.9931122,38.6883986 76.6465491,37.9098513 76.0257248,36.6202304 C75.4049006,35.3306096 75.6362107,33.7924731 76.6088731,32.7424861 C77.5815354,31.6924991 79.0975227,31.3444317 80.4307777,31.8649851 C81.7640327,32.3855384 82.643114,33.6687315 82.647,35.1 C82.6909328,35.9946071 82.3716441,36.8690302 81.7615895,37.524839 C81.1515348,38.1806478 80.3024443,38.5622321 79.407,38.583 L79.4205,38.583 Z M64.449,31.131 L64.449,33.561 L70.281,33.561 C70.1895556,34.7055351 69.7137902,35.7855225 68.931,36.6255 C67.7511309,37.8273033 66.1183333,38.4745383 64.4355,38.4075 C60.8566948,38.4075 57.9555,35.5063052 57.9555,31.9275 C57.9555,28.3486948 60.8566948,25.4475 64.4355,25.4475 C66.0795243,25.4206874 67.6670786,26.0469703 68.85,27.189 L70.5645,25.4745 C68.9511414,23.8408085 66.7449699,22.9300931 64.449,22.95 C61.180597,22.8228017 58.1045313,24.4939569 56.432503,27.305177 C54.7604746,30.1163972 54.7604746,33.6171028 56.432503,36.428323 C58.1045313,39.2395431 61.180597,40.9106983 64.449,40.7835 C66.7868828,40.8891434 69.0562,39.9784629 70.6725,38.286 C72.0868623,36.7320441 72.8420082,34.6892776 72.7785,32.589 C72.7828563,32.0773341 72.7376452,31.566449 72.6435,31.0635 L64.449,31.131 Z M125.6175,33.021 C124.896708,30.9004336 122.941702,29.4449216 120.7035,29.3624897 C119.210891,29.3595817 117.783646,29.9746002 116.760662,31.0615203 C115.737679,32.1484404 115.210209,33.6103062 115.3035,35.1 C115.270345,36.6245498 115.858572,38.0970383 116.93302,39.179125 C118.007469,40.2612117 119.475754,40.8598544 121.0005,40.8375 C122.918659,40.8478396 124.713869,39.8944515 125.7795,38.2995 L123.822,36.9495 C123.227657,37.9403219 122.155906,38.5454255 121.0005,38.5425 C119.803848,38.5881099 118.700966,37.8974698 118.2195,36.801 L125.901,33.6285 L125.6175,33.021 Z M117.7875,34.938 C117.73222,34.0944717 118.01879,33.2641957 118.582605,32.634348 C119.14642,32.0045003 119.940021,31.6280992 120.7845,31.59 C121.674649,31.5313447 122.51394,32.0094214 122.9175,32.805 L117.7875,34.938 Z M111.5505,40.5 L114.075,40.5 L114.075,23.625 L111.5505,23.625 L111.5505,40.5 Z M107.4195,30.645 L107.325,30.645 C106.555449,29.7846137 105.455327,29.2934879 104.301,29.2949965 C101.236698,29.4435967 98.8285551,31.9713475 98.8285551,35.03925 C98.8285551,38.1071525 101.236698,40.6349033 104.301,40.7835 C105.459069,40.802972 106.566322,40.3086629 107.325,39.4335 L107.406,39.4335 L107.406,40.257 C107.406,42.4575 106.2315,43.632 104.3415,43.632 C103.054009,43.6018645 101.912483,42.7963952 101.4525,41.5935 L99.252,42.5115 C100.09937,44.5726948 102.112962,45.9133087 104.3415,45.9000982 C107.298,45.9000982 109.7415,44.1585 109.7415,39.9195 L109.7415,29.7 L107.4195,29.7 L107.4195,30.645 Z M104.5305,38.583 C102.725398,38.4239157 101.340958,36.9120983 101.340958,35.1 C101.340958,33.2879017 102.725398,31.7760843 104.5305,31.617 C105.402761,31.6617627 106.220006,32.0567897 106.796947,32.7125203 C107.373888,33.3682508 107.661654,34.2291378 107.595,35.1 C107.669432,35.9748667 107.382588,36.842082 106.80116,37.5000134 C106.219732,38.1579448 105.394379,38.5492687 104.517,38.583 L104.5305,38.583 Z M137.4435,23.625 L131.409,23.625 L131.409,40.5 L133.9335,40.5 L133.9335,34.101 L137.457,34.101 C139.418123,34.2418911 141.293665,33.2754871 142.317176,31.5967135 C143.340686,29.9179399 143.340686,27.8080601 142.317176,26.1292865 C141.293665,24.4505129 139.418123,23.4841089 137.457,23.625 L137.4435,23.625 Z M137.4435,31.725 L133.92,31.725 L133.92,25.974 L137.4975,25.974 C139.096779,25.974 140.39325,27.2704714 140.39325,28.86975 C140.39325,30.4690286 139.096779,31.7655 137.4975,31.7655 L137.4435,31.725 Z M153.009,29.295 C151.130762,29.1827326 149.364927,30.1955688 148.5135,31.8735 L150.7545,32.805 C151.205948,31.972952 152.106018,31.485855 153.0495,31.563 C153.696863,31.4873927 154.347462,31.6750096 154.855163,32.0837088 C155.362864,32.4924079 155.685103,33.0879261 155.7495,33.7365 L155.7495,33.912 C154.93868,33.4826988 154.03445,33.260119 153.117,33.264 C150.7005,33.264 148.257,34.614 148.257,37.0575 C148.305178,38.1101069 148.777074,39.0984698 149.565327,39.7977264 C150.35358,40.496983 151.391158,40.8476691 152.442,40.77 C153.736959,40.8629922 154.979418,40.2417628 155.682,39.15 L155.763,39.15 L155.763,40.5 L158.193,40.5 L158.193,34.0065 C158.193,31.05 155.952,29.3355 153.0765,29.3355 L153.009,29.295 Z M152.6985,38.5425 C151.875,38.5425 150.7275,38.124 150.7275,37.1115 C150.7275,35.7615 152.1585,35.316 153.4275,35.316 C154.229457,35.2962116 155.022027,35.492023 155.7225,35.883 C155.54794,37.3942103 154.286807,38.5459297 152.766,38.583 L152.6985,38.5425 Z M167.049,29.7 L164.16,37.017 L164.079,37.017 L161.082,29.7 L158.382,29.7 L162.8775,39.933 L160.3125,45.6165 L162.945,45.6165 L169.857,29.7 L167.049,29.7 Z M144.3555,40.5 L146.88,40.5 L146.88,23.625 L144.3555,23.625 L144.3555,40.5 Z" id="Google-Play" fill="#FFFFFF"></path>
            <path d="M64.017,13.824 C64.0633773,14.8246619 63.6974113,15.8005713 63.0045,16.524 C62.2302072,17.3283343 61.1502531,17.7652248 60.0345,17.7255 C58.3231593,17.7121063 56.7866001,16.6741418 56.135284,15.0915321 C55.4839679,13.5089224 55.844823,11.6900853 57.051,10.476 C57.8347195,9.67589005 58.9147815,9.23604583 60.0345,9.261 C60.6052228,9.25909843 61.1703035,9.37395223 61.695,9.5985 C62.1835035,9.79553731 62.6183785,10.1055014 62.964,10.503 L62.2485,11.2185 C61.7022182,10.5687132 60.8821445,10.2136813 60.0345,10.2599932 C59.1824466,10.2558202 58.3654671,10.5989683 57.7719486,11.2103178 C57.1784302,11.8216673 56.8596082,12.6484435 56.889,13.5 C56.8709126,14.7868061 57.6287683,15.9581333 58.8099599,16.4689987 C59.9911515,16.9798641 61.3637,16.7299366 62.289,15.8355 C62.7044078,15.3853244 62.943997,14.8007267 62.964,14.1885 L60.0345,14.1885 L60.0345,13.2165 L63.963,13.2165 C63.9990087,13.4169941 64.0170802,13.620298 64.017,13.824 L64.017,13.824 Z M70.2,10.449 L66.555,10.449 L66.555,13.014 L69.876,13.014 L69.876,13.986 L66.555,13.986 L66.555,16.551 L70.2,16.551 L70.2,17.55 L65.475,17.55 L65.475,9.45 L70.2,9.45 L70.2,10.449 Z M74.628,17.55 L73.5885,17.55 L73.5885,10.449 L71.3205,10.449 L71.3205,9.45 L76.95,9.45 L76.95,10.449 L74.628,10.449 L74.628,17.55 Z M80.919,17.55 L80.919,9.45 L81.9585,9.45 L81.9585,17.55 L80.919,17.55 Z M86.5755,17.55 L85.536,17.55 L85.536,10.449 L83.268,10.449 L83.268,9.45 L88.83,9.45 L88.83,10.449 L86.5755,10.449 L86.5755,17.55 Z M99.3735,16.497 C97.7305363,18.1308076 95.0764637,18.1308076 93.4335,16.497 C91.840863,14.8111657 91.840863,12.1753343 93.4335,10.4895 C94.2191979,9.69805803 95.2882863,9.25294451 96.4035,9.25294451 C97.5187137,9.25294451 98.5878021,9.69805803 99.3735,10.4895 C100.972933,12.1726258 100.972933,14.8138742 99.3735,16.497 L99.3735,16.497 Z M94.203,15.822 C95.4197873,17.0337128 97.3872127,17.0337128 98.604,15.822 C99.7990177,14.504631 99.7990177,12.495369 98.604,11.178 C97.3872127,9.96628716 95.4197873,9.96628716 94.203,11.178 C93.0079823,12.495369 93.0079823,14.504631 94.203,15.822 L94.203,15.822 Z M102.033,17.55 L102.033,9.45 L103.302,9.45 L107.244,15.7545 L107.244,9.45 L108.2835,9.45 L108.2835,17.55 L107.2035,17.55 L103.086,10.9485 L103.086,17.55 L102.033,17.55 Z" id="GET-IT-ON" stroke="#FFFFFF" stroke-width="0.5" fill="#FFFFFF"></path>
            <g id="Icon" transform="translate(13.150000, 9.450000)">
                <path d="M0.944,0.729 C0.503987692,1.25699625 0.281897428,1.93292314 0.323,2.619 L0.323,32.481 C0.281897428,33.1670769 0.503987692,33.8430037 0.944,34.371 L1.0385,34.4655 L17.765,17.7525 L17.765,17.361 L1.0385,0.6345 L0.944,0.729 Z" id="Shape" fill="url(#linearGradient-1)"></path>
                <path d="M23.3,23.328 L17.765,17.7525 L17.765,17.361 L23.3,11.772 L23.4215,11.8395 L30.05,15.606 C31.94,16.6725 31.94,18.4275 30.05,19.5075 L23.4485,23.2605 L23.3,23.328 Z" id="Shape" fill="url(#linearGradient-2)"></path>
                <path d="M23.462,23.247 L17.765,17.55 L0.944,34.371 C1.73876894,35.0696552 2.9182791,35.1036796 3.752,34.452 L23.4755,23.247" id="Shape" fill="url(#linearGradient-3)"></path>
                <path d="M23.462,11.853 L3.7385,0.648 C2.9047791,-0.00367957228 1.72526894,0.0303447594 0.9305,0.729 L17.765,17.55 L23.462,11.853 Z" id="Shape" fill="url(#linearGradient-4)"></path>
                <path d="M23.3,23.1255 L3.7385,34.263 C2.93800202,34.8615042 1.83899798,34.8615042 1.0385,34.263 L0.944,34.3575 L1.0385,34.452 C1.83749181,35.055017 2.93950819,35.055017 3.7385,34.452 L23.462,23.247 L23.3,23.1255 Z" id="Shape" fill="#000000" opacity="0.2"></path>
                <path d="M0.944,34.182 C0.503987692,33.6540037 0.281897428,32.9780769 0.323,32.292 L0.323,32.4945 C0.281897428,33.1805769 0.503987692,33.8565037 0.944,34.3845 L1.0385,34.29 L0.944,34.182 Z M30.05,19.305 L23.3,23.1255 L23.4215,23.247 L30.05,19.494 C30.8155447,19.1343778 31.3304323,18.3929395 31.4,17.55 C31.2461398,18.3125312 30.747553,18.960694 30.05,19.305 Z" id="Shape" fill="#000000" opacity="0.12"></path>
                <path d="M3.7385,0.837 L30.05,15.795 C30.747553,16.139306 31.2461398,16.7874688 31.4,17.55 C31.3304323,16.7070605 30.8155447,15.9656222 30.05,15.606 L3.7385,0.648 C1.8485,-0.4185 0.3095,0.4725 0.3095,2.6325 L0.3095,2.835 C0.35,0.6615 1.862,-0.2295 3.7385,0.837 L3.7385,0.837 Z" id="Shape" fill="#FFFFFF" opacity="0.25"></path>
            </g>
        </g>
    </g>
</svg>